<?xml version="1.0" standalone="no"?>
<!DOCTYPE svg PUBLIC "-//W3C//DTD SVG 20010904//EN"
 "http://www.w3.org/TR/2001/REC-SVG-20010904/DTD/svg10.dtd">
<svg version="1.0" xmlns="http://www.w3.org/2000/svg"
 width="805.000000pt" height="805.000000pt" viewBox="0 0 805.000000 805.000000"
 preserveAspectRatio="xMidYMid meet">
<metadata>
Created by potrace 1.14, written by Peter Selinger 2001-2017
</metadata>
<g transform="translate(0.000000,805.000000) scale(0.100000,-0.100000)"
fill="#000000" stroke="none">
<path d="M2265 4798 c-2 -7 -3 -287 -2 -623 l2 -610 113 -3 112 -3 1 28 c0 35
0 1182 0 1206 -1 15 -13 17 -111 17 -80 0 -112 -3 -115 -12z"/>
<path d="M2749 4768 c0 -54 0 -1167 0 -1190 1 -15 14 -17 116 -16 l115 1 0
624 0 623 -115 0 -115 0 -1 -42z"/>
<path d="M340 4173 l0 -613 115 0 115 0 0 250 0 250 208 2 207 3 0 110 0 110
-208 3 -207 2 0 133 0 132 255 -1 c140 0 256 2 256 5 5 18 5 221 0 222 -3 1
-171 2 -373 3 l-368 1 0 -612z"/>
<path d="M5674 4782 l-31 -3 2 -427 c1 -438 3 -465 43 -552 19 -43 79 -120
118 -153 126 -106 344 -140 522 -81 153 51 271 186 300 341 5 29 9 238 8 465
l-1 413 -115 0 -115 0 -1 -410 c-1 -396 -1 -412 -22 -458 -27 -61 -54 -96 -94
-120 -165 -100 -375 -10 -404 172 -4 23 -7 215 -8 428 l-1 387 -85 0 c-47 1
-99 0 -116 -2z"/>
<path d="M1515 4495 c-170 -31 -297 -148 -348 -320 -20 -70 -21 -226 -2 -299
54 -206 224 -337 438 -337 148 0 251 41 343 136 103 107 146 260 122 435 -36
267 -279 436 -553 385z m206 -233 c129 -72 147 -348 30 -460 -72 -69 -228 -62
-295 12 -43 48 -60 107 -61 206 0 84 3 102 27 150 29 59 72 98 122 111 47 12
140 2 177 -19z"/>
<path d="M3523 4494 c-251 -52 -397 -294 -348 -579 17 -98 58 -180 124 -246
59 -59 93 -79 179 -110 75 -26 253 -21 330 9 173 68 284 240 282 442 0 94 -6
136 -25 191 -79 222 -301 342 -542 293z m208 -229 c78 -39 121 -137 115 -265
-7 -149 -79 -239 -197 -245 -101 -6 -160 26 -205 109 -24 44 -29 64 -31 143
-5 190 75 288 228 278 31 -2 71 -11 90 -20z"/>
<path d="M7220 4498 c-54 -9 -96 -25 -132 -50 l-28 -19 0 26 0 26 -102 -3
-103 -3 0 -650 c-1 -357 0 -654 2 -660 3 -8 161 -13 221 -6 9 1 12 51 12 216
0 118 1 215 3 215 2 0 21 -8 43 -19 108 -51 282 -40 383 24 164 103 244 331
197 556 -25 116 -85 212 -177 281 -73 55 -215 84 -319 66z m116 -211 c71 -27
126 -97 142 -182 11 -57 4 -163 -13 -215 -20 -61 -79 -125 -127 -138 -45 -13
-131 -6 -166 12 -41 21 -79 69 -94 119 -7 23 -12 89 -12 147 0 84 4 114 21
151 25 56 65 97 101 105 15 3 32 7 37 9 22 7 82 3 111 -8z"/>
<path d="M4150 4471 c0 -5 45 -157 100 -338 56 -180 114 -373 131 -428 48
-160 35 -146 136 -143 l86 3 96 287 c53 158 98 289 101 292 3 3 50 -127 103
-289 l98 -293 84 0 c52 0 87 4 93 11 5 7 18 44 29 82 28 94 231 763 243 798
l9 27 -114 0 c-100 0 -114 -2 -119 -17 -6 -24 -60 -202 -103 -343 -19 -63 -40
-131 -46 -150 l-10 -35 -18 55 c-16 50 -51 163 -124 403 l-27 87 -99 0 c-67 0
-99 -4 -99 -11 0 -6 -20 -75 -44 -153 -25 -77 -61 -195 -82 -260 l-36 -120
-13 40 c-7 21 -27 86 -45 144 -17 58 -50 162 -71 233 l-40 127 -109 0 c-61 0
-110 -4 -110 -9z"/>
</g>
</svg>
